<svg width="80" height="80" viewBox="0 0 80 80" xmlns="http://www.w3.org/2000/svg">
  <rect width="80" height="80" rx="18" fill="#534AB7"/>
  <rect x="14" y="18" width="22" height="28" rx="3" fill="white" opacity="0.15"/>
  <rect x="15" y="19" width="20" height="26" rx="2" fill="none" stroke="white" stroke-width="1" opacity="0.6"/>
  <rect x="18" y="23" width="12" height="1.5" rx="1" fill="white" opacity="0.7"/>
  <rect x="18" y="27" width="10" height="1.5" rx="1" fill="white" opacity="0.5"/>
  <rect x="18" y="31" width="11" height="1.5" rx="1" fill="white" opacity="0.5"/>
  <rect x="18" y="35" width="8"  height="1.5" rx="1" fill="white" opacity="0.4"/>
  <rect x="26" y="24" width="22" height="28" rx="3" fill="white" opacity="0.15"/>
  <rect x="27" y="25" width="20" height="26" rx="2" fill="none" stroke="white" stroke-width="1" opacity="0.6"/>
  <rect x="30" y="29" width="12" height="1.5" rx="1" fill="white" opacity="0.7"/>
  <rect x="30" y="33" width="10" height="1.5" rx="1" fill="white" opacity="0.5"/>
  <rect x="30" y="37" width="11" height="1.5" rx="1" fill="white" opacity="0.5"/>
  <rect x="30" y="41" width="8"  height="1.5" rx="1" fill="white" opacity="0.4"/>
  <polyline points="46,60 54,44 60,52 66,36" fill="none" stroke="#FAC775" stroke-width="2.5" stroke-linecap="round" stroke-linejoin="round"/>
  <circle cx="66" cy="36" r="3" fill="#FAC775"/>
</svg>